<?xml version="1.0" encoding="UTF-8"?>
<!DOCTYPE svg PUBLIC "-//W3C//DTD SVG 1.1//EN" "http://www.w3.org/Graphics/SVG/1.1/DTD/svg11.dtd">
<!-- Creator: CorelDRAW 2019 (64-Bit) -->
<svg xmlns="http://www.w3.org/2000/svg" xml:space="preserve" width="297mm" height="210mm" version="1.1" style="shape-rendering:geometricPrecision; text-rendering:geometricPrecision; image-rendering:optimizeQuality; fill-rule:evenodd; clip-rule:evenodd"
viewBox="0 0 29700 21000"
 xmlns:xlink="http://www.w3.org/1999/xlink">
 <defs>
  <style type="text/css">
   <![CDATA[
    .fil0 {fill:#2D2765}
    .fil1 {fill:white}
   ]]>
  </style>
 </defs>
 <g id="Layer_x0020_1">
  <metadata id="CorelCorpID_0Corel-Layer"/>
  <g id="_1904443889488">
   <path class="fil0" d="M10037.05 10622.26l2181.01 0 1390.48 0 4769.8 0 1390.48 0 1091.08 0 7840.08 0 0 834.28c0,306.35 -249.84,556.19 -556.19,556.19l-8490.8 0c-538.45,3448.58 -2887.71,6296.77 -6044.45,7542.75l0 85.32 -224.4 0c-1043.72,382.33 -2170.92,591.45 -3347.09,591.45 -5375.58,0 -9733.33,-4357.75 -9733.33,-9733.33 0,-5177.68 4042.83,-9411.1 9143.93,-9715.78 158.74,-9.48 298.76,41.44 414.5,150.45 115.77,109.01 174.9,245.89 174.9,404.91l0 278.56c0,294.34 -228.18,536.95 -521.96,555.08 -4364.45,269.39 -7820.9,3894.45 -7820.9,8326.78 0,4607.62 3735.24,8342.86 8342.86,8342.86 754.64,0 1485.75,-100.51 2181.01,-288.33l0 -6540.72 -2181.01 0 0 1743.13 -834.29 0c-306.35,0 -556.19,-249.84 -556.19,-556.19l0 -3764.38c0,-306.35 249.84,-556.19 556.19,-556.19l834.29 0 0 1743.16zm3571.49 7418.49c2382.69,-1130.43 4144.37,-3356.88 4633.95,-6028.02l-4633.95 0 0 6028.02z"/>
   <path class="fil1" d="M10732.28 10622.26l2181.02 0 1390.48 0 4769.8 0 1390.48 0 1091.08 0 7840.08 0 0 834.28c0,306.35 -249.84,556.19 -556.19,556.19l-8490.8 0c-538.45,3448.58 -2887.71,6296.77 -6044.45,7542.75l0 85.32 -224.4 0c-1043.72,382.33 -2170.92,591.45 -3347.1,591.45 -5375.58,0 -9733.33,-4357.75 -9733.33,-9733.33 0,-5177.68 4042.84,-9411.1 9143.94,-9715.78 158.74,-9.48 298.76,41.44 414.5,150.45 115.77,109.01 174.89,245.89 174.89,404.91l0 278.56c0,294.34 -228.17,536.95 -521.95,555.08 -4364.46,269.39 -7820.9,3894.45 -7820.9,8326.78 0,4607.62 3735.23,8342.86 8342.85,8342.86 754.64,0 1485.76,-100.51 2181.02,-288.33l0 -6540.72 -2181.02 0 0 1743.13 -834.28 0c-306.35,0 -556.19,-249.84 -556.19,-556.19l0 -3764.38c0,-306.35 249.84,-556.19 556.19,-556.19l834.28 0 0 1743.16zm3571.5 7418.49c2382.69,-1130.43 4144.37,-3356.88 4633.95,-6028.02l-4633.95 0 0 6028.02z"/>
  </g>
 </g>
</svg>
